<svg id="svg" xmlns="http://www.w3.org/2000/svg" xmlns:xlink="http://www.w3.org/1999/xlink" width="400" height="473.202614379085" viewBox="0, 0, 400,473.202614379085" version="1.1"><g id="svgg"><path id="path0" d="M196.514 2.829 C 195.076 3.876,193.704 4.942,193.464 5.198 C 192.382 6.356,187.354 9.586,186.634 9.586 C 186.194 9.586,185.312 10.215,184.674 10.984 C 184.036 11.753,182.713 12.739,181.735 13.176 C 180.757 13.612,178.780 14.743,177.342 15.690 C 175.904 16.636,174.139 17.685,173.420 18.020 C 172.702 18.356,169.319 20.321,165.903 22.387 C 162.487 24.453,159.443 26.144,159.139 26.144 C 158.689 26.144,148.321 32.294,142.919 35.765 C 142.200 36.227,140.828 36.988,139.869 37.455 C 138.911 37.922,135.969 39.657,133.333 41.310 C 130.697 42.963,126.580 45.375,124.183 46.671 C 121.786 47.966,119.630 49.296,119.390 49.627 C 119.150 49.957,114.564 52.860,109.197 56.078 C 99.336 61.991,91.611 66.922,88.494 69.293 C 87.558 70.005,86.499 70.588,86.141 70.588 C 85.783 70.588,83.747 71.765,81.617 73.203 C 79.486 74.641,77.342 75.817,76.853 75.817 C 76.363 75.817,75.832 76.113,75.672 76.476 C 75.512 76.838,71.264 79.650,66.231 82.725 C 38.169 99.869,28.789 105.447,28.018 105.447 C 27.547 105.447,27.030 105.760,26.870 106.144 C 26.710 106.527,21.580 109.712,15.468 113.222 L 4.357 119.603 4.357 237.088 L 4.357 354.572 9.804 357.310 C 12.800 358.816,16.698 361.195,18.467 362.595 C 20.237 363.996,21.886 365.142,22.132 365.142 C 22.379 365.142,24.069 366.161,25.887 367.407 C 27.706 368.654,29.978 370.043,30.937 370.495 C 32.818 371.382,34.258 372.239,39.651 375.681 C 41.569 376.904,43.725 378.175,44.444 378.505 C 45.163 378.834,46.928 379.867,48.366 380.799 C 49.804 381.731,52.255 383.144,53.813 383.938 C 55.370 384.733,56.645 385.731,56.645 386.156 C 56.645 386.581,57.011 386.928,57.459 386.928 C 58.348 386.928,86.563 403.547,93.830 408.351 C 96.307 409.989,98.730 411.329,99.214 411.329 C 99.698 411.329,100.628 411.819,101.282 412.418 C 102.918 413.918,105.488 415.521,107.957 416.582 C 109.098 417.072,111.247 418.345,112.732 419.412 C 114.217 420.478,116.130 421.743,116.984 422.222 C 117.837 422.702,125.218 427.113,133.385 432.026 C 141.552 436.939,148.546 440.959,148.927 440.959 C 149.309 440.959,150.331 441.743,151.198 442.702 C 152.066 443.660,153.115 444.444,153.529 444.444 C 153.944 444.444,155.942 445.510,157.969 446.812 C 159.997 448.115,162.990 449.912,164.620 450.807 C 166.251 451.701,169.192 453.464,171.156 454.724 C 173.121 455.984,176.296 457.797,178.214 458.753 C 180.131 459.709,185.379 462.959,189.877 465.976 C 197.619 471.168,202.151 472.748,203.418 470.698 C 203.677 470.279,206.739 468.233,210.223 466.150 C 213.707 464.067,216.754 462.120,216.993 461.824 C 217.233 461.527,220.763 459.311,224.837 456.900 C 228.911 454.489,236.558 449.868,241.830 446.630 C 256.947 437.346,259.720 435.730,260.532 435.730 C 260.950 435.730,261.423 435.394,261.583 434.983 C 261.743 434.572,266.119 431.729,271.308 428.665 C 276.497 425.601,281.791 422.412,283.073 421.578 C 284.354 420.745,285.991 419.793,286.710 419.463 C 287.429 419.134,289.586 417.865,291.503 416.644 C 293.420 415.423,295.773 413.978,296.732 413.433 C 306.614 407.817,309.999 405.790,311.111 404.825 C 311.830 404.200,314.183 402.802,316.340 401.719 C 318.497 400.635,321.438 398.868,322.876 397.791 C 324.314 396.715,327.451 394.790,329.847 393.513 C 335.298 390.610,336.503 389.890,342.702 385.835 C 345.458 384.032,347.718 382.854,347.726 383.218 C 347.733 383.581,348.027 383.485,348.379 383.006 C 348.731 382.526,352.549 380.021,356.863 377.438 C 361.176 374.856,370.346 369.220,377.240 364.914 C 384.133 360.609,390.800 356.812,392.054 356.476 L 394.336 355.866 394.336 237.069 C 394.336 119.176,394.322 118.265,392.593 117.306 C 391.634 116.775,389.163 115.261,387.102 113.943 C 385.041 112.625,383.223 111.547,383.063 111.547 C 382.902 111.547,378.706 109.069,373.738 106.040 C 368.771 103.011,364.118 100.262,363.399 99.930 C 362.680 99.599,360.915 98.558,359.477 97.617 C 358.039 96.677,354.902 94.865,352.505 93.591 C 350.109 92.317,347.952 91.032,347.712 90.735 C 347.473 90.439,346.492 89.730,345.534 89.160 C 344.575 88.590,337.195 84.179,329.133 79.356 C 321.072 74.534,314.172 70.588,313.800 70.588 C 313.428 70.588,312.414 69.804,311.547 68.845 C 310.679 67.887,309.617 67.102,309.187 67.102 C 308.756 67.102,305.701 65.338,302.397 63.181 C 299.092 61.024,296.192 59.259,295.951 59.259 C 295.710 59.259,293.769 58.083,291.638 56.645 C 289.508 55.207,287.496 54.031,287.167 54.031 C 286.839 54.031,284.543 52.711,282.065 51.097 C 276.072 47.196,255.415 34.858,254.875 34.858 C 254.640 34.858,252.570 33.584,250.275 32.026 C 244.434 28.063,242.892 27.089,241.394 26.420 C 240.675 26.099,235.355 23.013,229.572 19.563 C 223.788 16.113,218.236 13.031,217.234 12.713 C 216.232 12.394,215.192 11.561,214.923 10.860 C 214.654 10.159,214.022 9.586,213.519 9.586 C 212.193 9.586,201.307 2.469,201.307 1.602 C 201.307 0.327,199.217 0.863,196.514 2.829 M206.264 13.218 C 209.050 14.737,212.702 16.824,214.379 17.857 C 216.057 18.890,218.017 20.005,218.736 20.335 C 219.455 20.664,221.220 21.710,222.658 22.658 C 224.096 23.606,225.861 24.658,226.580 24.995 C 227.298 25.333,230.044 27.101,232.680 28.925 C 235.316 30.749,237.963 32.242,238.562 32.243 C 239.161 32.243,239.651 32.636,239.651 33.115 C 239.651 33.595,240.050 33.987,240.536 33.987 C 241.023 33.987,243.474 35.299,245.983 36.903 C 252.302 40.942,263.254 47.059,264.168 47.059 C 264.583 47.059,264.924 47.406,264.924 47.831 C 264.924 48.256,266.198 49.254,267.756 50.048 C 269.314 50.843,271.765 52.255,273.203 53.185 C 274.641 54.115,276.751 55.284,277.892 55.782 C 279.033 56.281,281.181 57.561,282.667 58.627 C 285.764 60.852,287.415 61.825,292.623 64.499 C 294.676 65.553,296.833 66.880,297.416 67.447 C 298.252 68.262,315.861 79.011,335.445 90.661 C 336.680 91.395,339.350 93.062,341.377 94.364 C 343.405 95.667,345.463 96.732,345.952 96.732 C 346.441 96.732,346.841 97.027,346.841 97.387 C 346.841 97.747,348.704 99.012,350.980 100.198 C 353.257 101.384,355.316 102.578,355.556 102.853 C 355.795 103.127,357.771 104.379,359.947 105.635 C 363.804 107.862,372.501 113.384,374.340 114.774 C 375.933 115.978,378.580 117.624,380.562 118.643 C 381.614 119.184,382.661 120.111,382.888 120.703 C 383.299 121.774,371.848 129.732,365.142 133.038 C 364.423 133.392,361.089 135.296,357.734 137.268 C 354.379 139.240,351.046 141.126,350.327 141.460 C 349.608 141.794,347.843 142.843,346.405 143.791 C 344.967 144.739,343.203 145.784,342.484 146.114 C 341.765 146.444,340.980 146.983,340.741 147.312 C 340.501 147.641,337.832 149.238,334.810 150.861 C 327.328 154.880,326.295 155.477,324.930 156.570 C 324.279 157.091,321.002 159.012,317.647 160.839 C 314.292 162.666,308.929 165.852,305.730 167.919 C 302.530 169.986,299.681 171.678,299.397 171.678 C 299.113 171.678,295.974 173.442,292.421 175.599 C 288.868 177.756,285.541 179.521,285.028 179.521 C 284.515 179.521,284.096 179.815,284.096 180.176 C 284.096 180.536,282.233 181.802,279.956 182.990 C 277.680 184.177,273.268 186.763,270.153 188.736 C 267.037 190.709,261.743 193.816,258.388 195.640 C 255.033 197.464,248.954 200.988,244.880 203.471 C 237.283 208.100,233.521 210.266,224.401 215.261 C 221.525 216.836,215.281 220.615,210.525 223.659 C 205.769 226.703,201.020 229.194,199.973 229.194 C 198.057 229.194,187.182 223.923,184.749 221.815 C 184.031 221.192,181.874 219.841,179.956 218.813 C 178.039 217.785,175.294 216.177,173.856 215.239 C 172.418 214.301,170.269 213.111,169.081 212.595 C 167.892 212.078,166.716 211.386,166.467 211.057 C 166.217 210.727,165.229 209.990,164.270 209.419 C 163.312 208.848,158.998 206.299,154.684 203.755 C 150.370 201.211,146.057 198.663,145.098 198.092 C 144.139 197.521,142.179 196.484,140.741 195.787 C 139.303 195.091,136.776 193.498,135.125 192.249 C 133.474 191.000,131.611 189.978,130.985 189.978 C 130.360 189.978,129.847 189.632,129.847 189.208 C 129.847 188.785,129.161 188.214,128.322 187.939 C 127.484 187.665,125.033 186.405,122.876 185.139 C 116.376 181.324,94.038 167.894,90.700 165.794 C 88.985 164.715,86.503 163.402,85.185 162.877 C 83.867 162.351,82.789 161.567,82.789 161.135 C 82.789 160.702,82.428 160.349,81.988 160.349 C 81.345 160.349,67.562 152.614,61.874 149.061 C 56.209 145.523,35.924 133.645,34.717 133.159 C 33.424 132.639,25.833 127.775,23.094 125.711 C 22.614 125.350,20.776 124.292,19.008 123.360 C 17.239 122.428,15.989 121.348,16.229 120.959 C 16.765 120.093,26.714 113.290,27.445 113.290 C 27.734 113.290,30.116 111.917,32.739 110.240 C 35.361 108.562,37.891 107.190,38.361 107.190 C 38.831 107.190,39.216 106.879,39.216 106.500 C 39.216 106.121,41.404 104.650,44.078 103.232 C 49.316 100.455,50.039 100.032,55.338 96.651 C 57.255 95.427,59.412 94.156,60.131 93.827 C 60.850 93.497,62.614 92.451,64.052 91.503 C 65.490 90.555,67.255 89.503,67.974 89.166 C 68.693 88.828,71.830 86.926,74.946 84.939 C 78.061 82.951,82.375 80.380,84.532 79.225 C 86.688 78.070,88.649 76.906,88.889 76.639 C 89.129 76.372,93.547 73.627,98.709 70.538 C 103.870 67.450,109.164 64.243,110.473 63.412 C 111.783 62.580,113.638 61.541,114.597 61.102 C 115.556 60.664,117.828 59.286,119.647 58.039 C 121.465 56.793,123.104 55.773,123.288 55.773 C 123.842 55.773,134.607 49.335,135.076 48.723 C 135.316 48.410,137.473 47.103,139.869 45.817 C 145.427 42.835,147.602 41.531,148.148 40.853 C 148.388 40.555,150.545 39.260,152.941 37.974 C 158.542 34.969,160.433 33.805,161.899 32.462 C 162.553 31.863,163.405 31.373,163.792 31.373 C 164.180 31.373,168.564 28.826,173.534 25.713 C 178.504 22.601,182.881 20.052,183.261 20.049 C 183.641 20.046,184.425 19.634,185.004 19.132 C 187.587 16.896,198.400 10.569,199.728 10.516 C 200.538 10.484,203.479 11.700,206.264 13.218 M387.364 350.896 C 386.885 351.449,385.120 352.638,383.442 353.539 C 381.765 354.440,378.733 356.243,376.706 357.545 C 374.678 358.847,372.795 359.913,372.520 359.913 C 372.245 359.913,369.394 361.605,366.185 363.673 C 358.109 368.877,339.844 379.926,327.669 386.974 C 326.471 387.668,325.294 388.450,325.054 388.713 C 324.651 389.155,318.219 392.971,314.161 395.176 C 312.444 396.109,307.013 399.396,303.671 401.525 C 302.730 402.124,300.000 403.808,297.603 405.268 C 295.207 406.727,292.477 408.394,291.536 408.972 C 279.878 416.132,280.623 415.691,275.209 418.634 C 272.668 420.016,269.020 422.221,267.102 423.534 C 261.891 427.104,250.079 433.987,249.165 433.987 C 248.726 433.987,248.366 434.306,248.366 434.697 C 248.366 435.088,247.092 436.060,245.534 436.858 C 241.326 439.015,236.221 442.002,231.808 444.891 C 226.930 448.085,225.857 448.732,221.182 451.294 C 219.118 452.425,214.860 455.072,211.720 457.176 C 202.139 463.596,203.094 469.713,202.838 400.271 L 202.614 339.541 198.555 343.542 C 194.308 347.730,190.737 349.553,190.162 347.828 C 189.582 346.087,182.296 346.670,179.584 348.675 C 176.306 351.098,172.275 350.301,170.220 346.821 C 169.408 345.446,168.431 344.514,168.050 344.750 C 166.922 345.447,163.689 343.337,159.938 339.453 C 158.007 337.454,155.341 335.147,154.013 334.327 C 151.896 333.018,147.002 327.179,146.241 325.054 C 146.092 324.636,142.832 324.850,138.998 325.529 C 129.902 327.139,126.297 327.106,121.968 325.374 C 118.311 323.911,117.315 323.938,102.994 325.893 C 94.297 327.081,94.711 326.459,95.201 337.590 C 95.699 348.885,94.863 351.257,89.800 352.928 C 85.403 354.379,81.012 352.490,78.115 347.901 C 75.980 344.520,73.518 343.355,68.506 343.355 C 63.031 343.355,49.248 331.286,47.872 325.287 C 46.460 319.131,47.792 313.048,51.106 310.520 C 53.011 309.068,54.031 307.551,54.031 306.171 C 54.031 305.006,54.662 302.832,55.433 301.340 C 56.753 298.788,56.738 298.545,55.178 297.244 C 51.426 294.114,51.223 293.325,52.315 286.107 C 53.893 275.683,57.001 271.986,64.249 271.915 C 69.243 271.865,74.149 283.923,72.232 291.535 C 70.118 299.933,74.484 304.929,85.488 306.699 C 88.862 307.242,91.490 308.174,92.135 309.056 C 93.133 310.418,93.777 310.419,101.900 309.070 C 106.683 308.275,111.743 307.625,113.144 307.625 C 114.545 307.625,116.229 306.973,116.887 306.176 C 119.044 303.564,124.862 301.663,131.590 301.373 C 135.185 301.218,138.349 300.790,138.622 300.422 C 138.895 300.055,142.794 299.415,147.288 299.000 C 155.226 298.268,155.527 298.159,157.920 295.177 C 159.274 293.489,163.316 290.249,166.902 287.978 C 174.494 283.169,174.442 283.288,169.925 281.123 C 168.013 280.208,166.449 278.900,166.449 278.219 C 166.449 274.545,164.233 278.337,164.000 282.411 C 163.448 292.011,156.290 293.083,151.675 284.256 C 150.752 282.490,148.970 279.869,147.714 278.431 C 146.458 276.993,144.701 274.968,143.810 273.931 C 137.708 266.829,138.853 256.759,145.892 255.617 C 149.109 255.095,150.247 252.713,147.955 251.296 C 146.647 250.488,140.974 250.802,136.669 251.922 C 134.908 252.380,130.791 253.113,127.518 253.551 C 124.246 253.989,116.920 255.354,111.239 256.585 C 105.557 257.816,100.459 258.811,99.910 258.796 C 97.494 258.729,102.582 256.224,106.218 255.690 C 108.430 255.366,111.202 254.741,112.379 254.301 C 113.556 253.862,117.085 253.148,120.222 252.716 C 138.536 250.191,147.277 247.946,147.277 245.767 C 147.277 242.867,150.694 241.149,153.198 242.790 C 155.081 244.023,155.812 244.028,160.649 242.836 C 178.846 238.352,203.347 238.820,191.823 243.431 C 189.830 244.228,187.522 244.886,186.693 244.893 C 185.864 244.900,183.442 245.513,181.310 246.255 C 176.783 247.831,167.253 249.765,160.131 250.552 C 154.183 251.209,152.165 255.338,157.791 255.338 C 162.085 255.338,163.834 256.734,163.834 260.161 C 163.834 261.987,164.265 263.188,164.924 263.198 C 173.462 263.333,185.156 266.430,183.725 268.177 C 182.779 269.331,183.003 269.304,184.967 268.026 C 186.285 267.168,187.364 266.879,187.364 267.384 C 187.364 267.888,188.050 268.321,188.889 268.345 C 189.728 268.369,191.808 268.624,193.512 268.911 C 195.761 269.289,196.926 269.053,197.759 268.049 C 198.390 267.289,199.643 266.667,200.542 266.667 C 202.076 266.667,202.181 265.755,202.216 252.070 L 202.253 237.473 206.355 234.351 C 208.611 232.634,211.830 230.477,213.508 229.558 C 215.185 228.639,216.754 227.672,216.993 227.409 C 217.233 227.146,219.390 225.808,221.786 224.434 C 224.183 223.061,226.348 221.634,226.597 221.263 C 226.847 220.892,228.023 220.177,229.212 219.673 C 230.400 219.170,233.725 217.382,236.601 215.700 C 239.477 214.017,242.418 212.377,243.137 212.055 C 243.856 211.732,246.511 210.163,249.037 208.567 C 251.562 206.970,253.806 205.664,254.022 205.664 C 254.239 205.664,257.401 203.900,261.049 201.743 C 264.697 199.586,268.042 197.821,268.482 197.821 C 268.921 197.821,269.281 197.468,269.281 197.035 C 269.281 196.603,270.359 195.824,271.678 195.305 C 272.996 194.786,274.662 193.963,275.381 193.476 C 277.183 192.256,299.910 179.124,301.525 178.369 C 302.244 178.033,304.009 177.000,305.447 176.073 C 306.885 175.145,309.826 173.483,311.983 172.379 C 314.139 171.275,316.100 170.157,316.340 169.893 C 316.920 169.256,333.754 159.477,334.271 159.477 C 334.493 159.477,336.334 158.407,338.362 157.098 C 343.445 153.818,345.318 152.679,346.841 151.939 C 347.560 151.590,350.109 150.145,352.505 148.727 C 359.985 144.305,370.965 137.988,372.220 137.387 C 372.880 137.071,375.381 135.627,377.778 134.180 C 380.174 132.732,383.214 131.079,384.532 130.506 C 385.850 129.934,387.024 129.061,387.141 128.567 C 387.258 128.073,387.552 177.669,387.795 238.780 C 388.086 312.239,387.940 350.232,387.364 350.896 M266.873 245.894 C 266.103 246.664,266.341 247.157,267.866 247.948 C 268.969 248.520,272.386 250.361,275.459 252.038 C 281.227 255.187,287.407 257.414,292.941 258.338 C 299.252 259.393,299.922 265.795,293.721 265.795 C 289.435 265.795,285.061 268.051,284.015 270.800 L 283.176 273.006 268.431 272.383 C 250.371 271.618,242.821 272.287,245.370 274.425 C 246.299 275.204,247.597 276.522,248.255 277.354 C 250.347 280.001,247.758 279.019,244.307 275.858 C 242.500 274.203,240.878 272.992,240.703 273.168 C 240.527 273.344,241.885 274.883,243.721 276.589 C 245.557 278.295,246.656 279.702,246.164 279.715 C 245.672 279.728,243.718 278.215,241.823 276.354 C 238.476 273.066,238.236 272.981,233.480 273.413 C 229.039 273.815,228.538 273.685,228.101 272.015 C 227.410 269.370,224.485 268.564,213.115 267.884 L 203.050 267.282 203.050 302.622 L 203.050 337.962 209.779 336.108 C 213.480 335.088,217.231 333.531,218.115 332.648 C 219.709 331.053,223.899 331.181,226.144 332.892 C 229.725 335.621,241.953 339.869,246.230 339.869 C 252.843 339.869,251.093 342.789,242.006 346.916 C 240.950 347.395,239.303 348.261,238.344 348.839 C 237.386 349.418,234.392 351.168,231.693 352.729 C 222.596 357.988,223.487 359.477,235.730 359.477 C 241.572 359.477,242.357 359.210,254.290 353.174 C 266.248 347.124,266.862 346.916,269.541 348.006 L 272.331 349.143 272.767 362.436 L 273.203 375.729 276.253 378.241 C 281.507 382.569,291.068 381.069,291.068 375.916 C 291.068 375.044,292.466 374.728,296.324 374.728 C 308.393 374.728,327.517 355.827,323.452 347.915 C 323.026 347.085,322.461 344.708,322.197 342.634 C 321.611 338.033,317.562 334.771,309.586 332.473 C 303.086 330.601,309.207 325.421,319.973 323.682 C 328.563 322.295,332.872 320.071,346.270 310.107 C 357.939 301.429,358.304 300.974,355.310 298.838 C 349.959 295.020,345.769 294.710,337.136 297.495 C 333.607 298.633,328.170 300.370,325.054 301.354 C 317.420 303.765,313.332 305.546,309.044 308.329 C 307.066 309.613,303.486 311.647,301.089 312.848 C 297.256 314.770,296.583 315.527,295.496 319.150 C 294.358 322.938,293.941 323.366,290.267 324.513 C 288.071 325.198,284.123 326.581,281.494 327.585 C 277.431 329.138,276.254 329.260,273.651 328.404 C 268.326 326.651,258.824 321.541,258.824 320.430 C 258.824 318.313,243.929 310.240,240.023 310.240 C 239.207 310.240,236.837 311.808,234.757 313.725 C 232.678 315.643,230.477 317.196,229.867 317.178 C 229.257 317.159,230.713 315.422,233.103 313.316 C 235.493 311.211,237.209 309.250,236.917 308.958 C 236.625 308.666,234.475 310.208,232.139 312.384 C 229.802 314.560,227.595 316.340,227.235 316.340 C 225.743 316.340,226.784 314.615,230.065 311.651 C 234.172 307.940,234.293 307.372,231.267 305.993 C 229.123 305.016,229.007 304.658,229.381 300.158 C 229.955 293.225,229.092 293.555,256.645 289.714 C 264.432 288.628,267.464 287.845,268.520 286.648 C 269.668 285.345,277.667 283.272,281.699 283.231 C 282.059 283.227,282.353 286.754,282.353 291.068 C 282.353 295.715,282.708 298.911,283.224 298.911 C 283.704 298.911,284.096 299.499,284.096 300.218 C 284.096 303.896,289.905 301.660,296.001 295.635 C 299.279 292.395,303.632 288.399,305.675 286.756 C 315.196 279.096,315.831 269.317,306.972 266.784 C 303.355 265.750,302.713 264.770,303.797 261.945 C 304.459 260.220,306.461 260.197,309.686 261.879 C 311.059 262.595,312.601 263.181,313.114 263.181 C 313.627 263.181,315.641 263.906,317.590 264.793 C 319.538 265.680,322.898 267.089,325.054 267.924 C 327.211 268.759,330.153 269.950,331.590 270.571 C 337.268 273.024,342.529 274.629,343.978 274.350 C 345.507 274.055,331.604 268.140,316.564 262.685 C 305.608 258.711,305.011 258.335,305.011 255.414 C 305.011 252.431,303.390 250.884,300.938 251.525 C 299.945 251.785,294.039 250.396,287.812 248.439 C 276.334 244.831,268.846 243.921,266.873 245.894 " stroke="none" fill="#000000" fill-rule="evenodd"></path></g></svg>